<?xml version="1.0" encoding="iso-8859-1"?>
<!-- Generator: Adobe Illustrator 19.0.0, SVG Export Plug-In . SVG Version: 6.00 Build 0)  -->
<svg version="1.1" id="Layer_1" xmlns="http://www.w3.org/2000/svg" x="0px" y="0px"
     viewBox="0 0 297 297" style="enable-background:new 0 0 297 297;" xml:space="preserve">
<g id="XMLID_22_">
	<g>
		<polygon style="fill:#A38671;" points="92.695,233.15 64.925,287.33 43.865,287.33 71.645,233.15 		"/>
		<polygon style="fill:#A38671;" points="225.355,233.15 253.125,287.33 232.075,287.33 204.305,233.15 		"/>
		<rect x="25.635" y="201.22" style="fill:#8E725E;" width="245.73" height="22.26"/>
		<rect x="137.375" y="9.67" style="fill:#8E725E;" width="22.25" height="38.22"/>
		<rect x="41.595" y="57.56" style="fill:#ECF0F1;" width="213.8" height="133.99"/>
		<path d="M281.035,196.39v31.92c0,2.67-2.16,4.84-4.84,4.84h-39.97l29.12,56.81c0.77,1.5,0.7,3.29-0.18,4.73
			c-0.87,1.43-2.44,2.31-4.12,2.31h-31.93c-1.81,0-3.48-1.02-4.3-2.63l-31.39-61.22h-89.86l-31.38,61.22
			c-0.83,1.61-2.49,2.63-4.31,2.63h-31.92c-1.69,0-3.25-0.88-4.13-2.31c-0.88-1.44-0.94-3.23-0.17-4.73l29.12-56.81h-39.98
			c-2.67,0-4.83-2.17-4.83-4.84v-31.92c0-2.67,2.16-4.84,4.83-4.84h11.13V52.72c0-2.67,2.16-4.83,4.84-4.83h90.93V4.84
			c0-2.67,2.17-4.84,4.84-4.84h31.93c2.67,0,4.83,2.17,4.83,4.84v43.05h90.94c2.67,0,4.84,2.16,4.84,4.83v138.83h11.12
			C278.875,191.55,281.035,193.72,281.035,196.39z M271.365,223.48v-22.26H25.635v22.26H271.365z M255.395,191.55V57.56h-213.8
			v133.99H255.395z M253.125,287.33l-27.77-54.18h-21.05l27.77,54.18H253.125z M159.625,47.89V9.67h-22.25v38.22H159.625z
			 M64.925,287.33l27.77-54.18h-21.05l-27.78,54.18H64.925z"/>
	</g>
</g>
<g>
</g>
<g>
</g>
<g>
</g>
<g>
</g>
<g>
</g>
<g>
</g>
<g>
</g>
<g>
</g>
<g>
</g>
<g>
</g>
<g>
</g>
<g>
</g>
<g>
</g>
<g>
</g>
<g>
</g>
</svg>
